# xmcd
#
# Track frame offsets: 
#        150
#        10968
#        24894
#        34011
#        43121
#        55714
#        66665
#        80595
#        94304
#        106550
#        120010
#        133804
#        149110
#        161878
#        174933
#        188859
#        201856
#        215643
#        225477
#        239670
#        251270
#        265062
#
# Disc length: 3715 seconds
#
# Revision: 0
# Processed by: cddbd v1.5.2PL0 Copyright (c) Steve Scherf et al.
# Submitted via: ExactAudioCopy v0.99pb4
#
DISCID=340e8116
DTITLE=Various Artist - Blues and Rock 'n' Roll Collection
DYEAR=2005
DGENRE=Blues
TTITLE0=Etta James - Good Rockin' Daddy
TTITLE1=Etta James - The Wallflower (Roll With Me Henry)
TTITLE2=Ike and Tina Turner - I Can't Believe What You Say
TTITLE3=The Ikettes - Never More Will I Be Lonely For You
TTITLE4=Elmore James - Early In The Morning
TTITLE5=Bobby Bland - Good Lovin'
TTITLE6=Lowell Fulson - Tramp
TTITLE7=Young Jessie - Mary Lou
TTITLE8=Howling Wolf - Dog Me Around aka Hw Many More Years
TTITLE9=Howling Wolf - My Baby Stole Off
TTITLE10=Howling Wolf - Riding In The Moonlight
TTITLE11=Johnny 'Guitar' Watson - Three Hours Past Midnight
TTITLE12=Little Willie Littlefield - Ain't A Better Story Told
TTITLE13=Roy Hawkins - The Thrill Is Gone
TTITLE14=ZZ Hill - I Need Someone
TTITLE15=Lightning Hopkins - Jake Head Boogie
TTITLE16=Floyd Dixon - Gloomy Baby
TTITLE17=Shrily Hunter - Oop Shoop
TTITLE18=Rosco Gordon - No More Doggin'
TTITLE19=Jimmy McCracklin - Gonna Tell Your Mother
TTITLE20=Little Junior Parker - Bad Women, Bad Whiskey
TTITLE21=Richard Berry - The Big Break
EXTD=
EXTT0=
EXTT1=
EXTT2=
EXTT3=
EXTT4=
EXTT5=
EXTT6=
EXTT7=
EXTT8=
EXTT9=
EXTT10=
EXTT11=
EXTT12=
EXTT13=
EXTT14=
EXTT15=
EXTT16=
EXTT17=
EXTT18=
EXTT19=
EXTT20=
EXTT21=
PLAYORDER=
